name ../AP_Laxity/ap_15.mot
datacolumns   7
datarows 75
range   21.00000000 21.74000000
cursor 1.0 1.0 0.0
keys m_key
wrap
enforce_loops no
enforce_constraints no
calc_derivatives -1.000000
event_color 0.000000 0.000000 0.000000
endheader
            time femur_r_force_vx femur_r_force_vy femur_r_force_vz femur_r_force_px femur_r_force_py femur_r_force_pz 
     21.00000000      85.10589196     -22.80405502       0.00000000      -0.02255621      -0.51082145       0.00000000 
     21.01000000      85.27470660     -22.84928877       0.00000000      -0.02255621      -0.51082145       0.00000000 
     21.02000000      85.44243633     -22.89423181       0.00000000      -0.02255621      -0.51082145       0.00000000 
     21.03000000      85.60907624     -22.93888284       0.00000000      -0.02255621      -0.51082145       0.00000000 
     21.04000000      85.77462144     -22.98324055       0.00000000      -0.02255621      -0.51082145       0.00000000 
     21.05000000      85.93906707     -23.02730362       0.00000000      -0.02255621      -0.51082145       0.00000000 
     21.06000000      86.10240830     -23.07107077       0.00000000      -0.02255621      -0.51082145       0.00000000 
     21.07000000      86.26464035     -23.11454072       0.00000000      -0.02255621      -0.51082145       0.00000000 
     21.08000000      86.42575845     -23.15771218       0.00000000      -0.02255621      -0.51082145       0.00000000 
     21.09000000      86.58575787     -23.20058390       0.00000000      -0.02255621      -0.51082145       0.00000000 
     21.10000000      86.74463393     -23.24315461       0.00000000      -0.02255621      -0.51082145       0.00000000 
     21.11000000      86.90238196     -23.28542307       0.00000000      -0.02255621      -0.51082145       0.00000000 
     21.12000000      87.05899733     -23.32738803       0.00000000      -0.02255621      -0.51082145       0.00000000 
     21.13000000      87.21447545     -23.36904826       0.00000000      -0.02255621      -0.51082145       0.00000000 
     21.14000000      87.36881175     -23.41040255       0.00000000      -0.02255621      -0.51082145       0.00000000 
     21.15000000      87.52200172     -23.45144968       0.00000000      -0.02255621      -0.51082145       0.00000000 
     21.16000000      87.67404084     -23.49218844       0.00000000      -0.02255621      -0.51082145       0.00000000 
     21.17000000      87.82492467     -23.53261764       0.00000000      -0.02255621      -0.51082145       0.00000000 
     21.18000000      87.97464878     -23.57273610       0.00000000      -0.02255621      -0.51082145       0.00000000 
     21.19000000      88.12320877     -23.61254262       0.00000000      -0.02255621      -0.51082145       0.00000000 
     21.20000000      88.27060029     -23.65203606       0.00000000      -0.02255621      -0.51082145       0.00000000 
     21.21000000      88.41681900     -23.69121525       0.00000000      -0.02255621      -0.51082145       0.00000000 
     21.22000000      88.56186063     -23.73007904       0.00000000      -0.02255621      -0.51082145       0.00000000 
     21.23000000      88.70572091     -23.76862628       0.00000000      -0.02255621      -0.51082145       0.00000000 
     21.24000000      88.84839563     -23.80685586       0.00000000      -0.02255621      -0.51082145       0.00000000 
     21.25000000      88.98988060     -23.84476664       0.00000000      -0.02255621      -0.51082145       0.00000000 
     21.26000000      89.13017166     -23.88235752       0.00000000      -0.02255621      -0.51082145       0.00000000 
     21.27000000      89.26926471     -23.91962739       0.00000000      -0.02255621      -0.51082145       0.00000000 
     21.28000000      89.40715566     -23.95657516       0.00000000      -0.02255621      -0.51082145       0.00000000 
     21.29000000      89.54384046     -23.99319974       0.00000000      -0.02255621      -0.51082145       0.00000000 
     21.30000000      89.67931511     -24.02950006       0.00000000      -0.02255621      -0.51082145       0.00000000 
     21.31000000      89.81357563     -24.06547506       0.00000000      -0.02255621      -0.51082145       0.00000000 
     21.32000000      89.94661808     -24.10112368       0.00000000      -0.02255621      -0.51082145       0.00000000 
     21.33000000      90.07843856     -24.13644487       0.00000000      -0.02255621      -0.51082145       0.00000000 
     21.34000000      90.20903320     -24.17143760       0.00000000      -0.02255621      -0.51082145       0.00000000 
     21.35000000      90.33839817     -24.20610084       0.00000000      -0.02255621      -0.51082145       0.00000000 
     21.36000000      90.46652968     -24.24043357       0.00000000      -0.02255621      -0.51082145       0.00000000 
     21.37000000      90.59342395     -24.27443479       0.00000000      -0.02255621      -0.51082145       0.00000000 
     21.38000000      90.71907729     -24.30810350       0.00000000      -0.02255621      -0.51082145       0.00000000 
     21.39000000      90.84348598     -24.34143871       0.00000000      -0.02255621      -0.51082145       0.00000000 
     21.40000000      90.96664639     -24.37443944       0.00000000      -0.02255621      -0.51082145       0.00000000 
     21.41000000      91.08855491     -24.40710473       0.00000000      -0.02255621      -0.51082145       0.00000000 
     21.42000000      91.20920795     -24.43943361       0.00000000      -0.02255621      -0.51082145       0.00000000 
     21.43000000      91.32860197     -24.47142514       0.00000000      -0.02255621      -0.51082145       0.00000000 
     21.44000000      91.44673348     -24.50307839       0.00000000      -0.02255621      -0.51082145       0.00000000 
     21.45000000      91.56359900     -24.53439241       0.00000000      -0.02255621      -0.51082145       0.00000000 
     21.46000000      91.67919511     -24.56536629       0.00000000      -0.02255621      -0.51082145       0.00000000 
     21.47000000      91.79351842     -24.59599913       0.00000000      -0.02255621      -0.51082145       0.00000000 
     21.48000000      91.90656557     -24.62629002       0.00000000      -0.02255621      -0.51082145       0.00000000 
     21.49000000      92.01833325     -24.65623808       0.00000000      -0.02255621      -0.51082145       0.00000000 
     21.50000000      92.12881817     -24.68584243       0.00000000      -0.02255621      -0.51082145       0.00000000 
     21.51000000      92.23801710     -24.71510219       0.00000000      -0.02255621      -0.51082145       0.00000000 
     21.52000000      92.34592683     -24.74401652       0.00000000      -0.02255621      -0.51082145       0.00000000 
     21.53000000      92.45254420     -24.77258456       0.00000000      -0.02255621      -0.51082145       0.00000000 
     21.54000000      92.55786607     -24.80080547       0.00000000      -0.02255621      -0.51082145       0.00000000 
     21.55000000      92.66188936     -24.82867842       0.00000000      -0.02255621      -0.51082145       0.00000000 
     21.56000000      92.76461102     -24.85620261       0.00000000      -0.02255621      -0.51082145       0.00000000 
     21.57000000      92.86602803     -24.88337721       0.00000000      -0.02255621      -0.51082145       0.00000000 
     21.58000000      92.96613741     -24.91020144       0.00000000      -0.02255621      -0.51082145       0.00000000 
     21.59000000      93.06493623     -24.93667451       0.00000000      -0.02255621      -0.51082145       0.00000000 
     21.60000000      93.16242160     -24.96279563       0.00000000      -0.02255621      -0.51082145       0.00000000 
     21.61000000      93.25859064     -24.98856405       0.00000000      -0.02255621      -0.51082145       0.00000000 
     21.62000000      93.35344055     -25.01397901       0.00000000      -0.02255621      -0.51082145       0.00000000 
     21.63000000      93.44696853     -25.03903975       0.00000000      -0.02255621      -0.51082145       0.00000000 
     21.64000000      93.53917184     -25.06374556       0.00000000      -0.02255621      -0.51082145       0.00000000 
     21.65000000      93.63004778     -25.08809569       0.00000000      -0.02255621      -0.51082145       0.00000000 
     21.66000000      93.71959368     -25.11208944       0.00000000      -0.02255621      -0.51082145       0.00000000 
     21.67000000      93.80780691     -25.13572611       0.00000000      -0.02255621      -0.51082145       0.00000000 
     21.68000000      93.89468489     -25.15900499       0.00000000      -0.02255621      -0.51082145       0.00000000 
     21.69000000      93.98022507     -25.18192541       0.00000000      -0.02255621      -0.51082145       0.00000000 
     21.70000000      94.06442493     -25.20448670       0.00000000      -0.02255621      -0.51082145       0.00000000 
     21.71000000      94.14728202     -25.22668819       0.00000000      -0.02255621      -0.51082145       0.00000000 
     21.72000000      94.22879388     -25.24852922       0.00000000      -0.02255621      -0.51082145       0.00000000 
     21.73000000      94.30895814     -25.27000917       0.00000000      -0.02255621      -0.51082145       0.00000000 
     21.74000000      94.38777245     -25.29112740       0.00000000      -0.02255621      -0.51082145       0.00000000 
